<svg width="70" height="70" viewBox="0 0 70 70" fill="none" xmlns="http://www.w3.org/2000/svg">
<g clip-path="url(#clip0_84_454)">
<path d="M0 15.1095C0.0162964 11.9045 1.15704 8.19165 3.93558 5.09533C7.8114 0.774075 14.0067 -0.239017 19.9142 2.04248C24.5587 3.83508 27.5382 7.27905 30.5883 10.6877C31.4249 11.622 32.3157 12.4966 33.2935 13.2978C35.8955 15.4218 38.8098 16.2312 42.281 15.3838C44.7173 14.789 47.0857 14.0203 49.4894 13.3413C50.4129 13.0806 51.3418 12.8253 52.287 12.6569C52.8981 12.5482 53.5798 12.5428 53.9709 13.1485C54.362 13.7541 53.9981 14.2621 53.6396 14.7482C52.5776 16.1823 51.1897 17.3339 49.5139 18.0537C42.3163 21.1473 35.1214 21.5818 27.9999 17.7957C24.5641 15.9677 21.4922 13.5939 17.8934 12.0159C13.947 10.2857 10.7855 11.7443 9.80771 15.7097C9.06622 18.7164 9.27536 21.7421 9.6366 24.7678C10.5003 32.017 12.2522 39.1113 14.0421 46.1948C14.9465 49.7719 16.3942 53.186 18.4774 56.342C18.7626 56.7739 18.8495 57.4937 19.5801 57.4203C20.1804 57.3578 20.2591 56.7196 20.452 56.2796C22.4238 51.8279 24.9199 47.6588 28.3448 44.0111C29.8957 42.3597 31.4547 40.6975 33.5841 39.6301C34.2523 39.296 35.0074 38.7202 35.6809 39.3694C36.3518 40.0158 35.9308 40.8116 35.4691 41.4634C34.4669 42.8839 33.5733 44.3995 32.3755 45.6679C28.5295 49.7393 27.109 54.5685 26.6147 59.8105C26.3513 62.5944 25.8243 65.4028 24.0209 67.8093C22.4619 69.8898 20.6013 70.088 18.5453 68.4068C16.8315 67.0053 15.7993 65.1855 14.8487 63.3278C9.64203 53.1534 6.02695 42.4657 2.99854 31.596C1.56445 26.4436 0.320496 21.2641 0 15.1095Z" fill="#1E3257"/>
<path d="M61.1633 18.7273C61.2583 16.348 61.1307 14.0176 60.2153 11.7334C58.8247 8.2677 56.3178 6.86893 52.3279 7.43387C49.1664 7.88202 46.377 9.24005 43.5061 10.3998C41.0725 11.383 38.7204 12.5971 35.9283 12.4314C35.5426 12.407 35.1406 12.4314 34.7767 12.3364C33.9782 12.1245 33.0764 11.8475 32.9379 11.0109C32.7777 10.0494 33.8695 10.1201 34.4616 9.9082C38.7286 8.38449 42.1861 5.68744 45.8582 3.30002C49.6444 0.836549 53.8326 -0.369384 58.4418 0.0977794C62.8689 0.54593 65.5986 3.25385 67.5134 6.67609C69.4337 10.1038 69.6211 13.8628 69.5043 17.6463C69.2924 24.45 67.5542 30.993 65.4601 37.46C63.768 42.683 61.5163 47.7185 59.1072 52.6944C56.9914 57.0645 54.5985 61.2934 51.6462 65.2372C51.2089 65.8238 50.72 66.3806 50.2067 66.913C48.5743 68.6051 46.6812 68.4041 45.4074 66.4458C44.3454 64.8107 44.2041 62.972 44.033 61.1522C43.479 55.2529 42.379 49.4867 39.7335 44.0247C37.5878 39.5975 34.2769 36.2839 29.5021 34.236C28.8883 33.9725 28.2853 33.6873 27.6823 33.4049C27.1038 33.1333 26.7616 32.7096 26.9408 32.1039C27.1581 31.3624 27.8018 31.5362 28.3722 31.634C33.8342 32.5575 38.2886 35.0372 41.776 39.019C45.7958 43.6091 47.8301 49.0331 49.5059 54.6146C49.6363 55.0519 49.4597 55.7662 50.1605 55.7961C50.682 55.8178 50.7634 55.166 50.959 54.7803C54.2998 48.2536 56.66 41.42 58.5748 34.4343C59.5744 30.792 60.305 27.109 60.9433 23.4043C61.2121 21.848 61.0682 20.2836 61.1605 18.7273H61.1633Z" fill="#3FA3DF"/>
<path d="M41.6809 52.1104C41.3278 55.0003 40.9611 57.8277 39.5434 60.4324C37.7698 63.689 34.7251 64.0231 32.2371 61.1929C30.7053 59.4519 30.0534 57.3443 29.4776 55.2203C29.3608 54.7885 29.3445 54.305 29.8823 54.047C30.4418 53.7808 30.9253 53.9954 31.3246 54.3539C32.153 55.0954 32.8972 55.9102 33.8532 56.543C34.9478 57.2682 35.7599 57.0944 36.5856 56.1764C37.71 54.9215 38.4895 53.501 39.1495 52.0126C39.3505 51.5591 39.5271 51.0837 40.0377 50.8339C40.4369 50.6383 40.8715 50.5324 41.2653 50.8094C41.7542 51.1517 41.6755 51.6758 41.6836 52.1104H41.6809Z" fill="#1E3257"/>
</g>
<defs>
<clipPath id="clip0_84_454">
<rect width="69.5312" height="69.5312" rx="15" fill="white"/>
</clipPath>
</defs>
</svg>
